<?xml version="1.0" encoding="UTF-8"?>
<svg width="512px" height="512px" viewBox="0 0 512 512" version="1.1" xmlns="http://www.w3.org/2000/svg" xmlns:xlink="http://www.w3.org/1999/xlink">
    <!-- Generator: Sketch 64 (93537) - https://sketch.com -->
    <title>Education</title>
    <desc>Created with Sketch.</desc>
    <g id="Education" stroke="none" stroke-width="1" fill="none" fill-rule="evenodd">
        <path d="M157.98443,182.666273 L376.956422,156.200822 C398.888206,153.550097 418.816268,169.180484 421.466993,191.112268 C421.834132,194.149931 421.851516,197.219689 421.518806,200.261315 L397.181776,422.749539 C395.145884,441.36159 380.471899,456.071198 361.86484,458.152213 L138.508396,483.132419 C116.553885,485.587814 96.7657466,469.780657 94.3103521,447.826146 C93.9583902,444.679136 93.9813719,441.501464 94.3788146,438.359874 L122.228193,218.224161 C124.587288,199.57667 139.324105,184.921602 157.98443,182.666273 Z" id="Rectangle" fill="#0097A7" transform="translate(257.500000, 319.466862) rotate(45.000000) translate(-257.500000, -319.466862) "></path>
        <path d="M139.947529,87.2799175 L397.956612,56.0561546 C419.887989,53.4020615 439.81845,69.0293879 442.472543,90.960765 C442.840172,93.9985625 442.858007,97.068512 442.525699,100.110376 L413.855037,362.554398 C411.82174,381.166684 397.149872,395.878314 378.543156,397.961973 L115.50666,427.417925 C93.5524985,429.876445 73.7621096,414.072106 71.3035888,392.117945 C70.9512055,388.971224 70.9737046,385.793791 71.3706135,382.652376 L104.196719,122.843571 C106.552837,104.195599 121.287448,89.5381247 139.947529,87.2799175 Z" id="Rectangle" fill="#00BCD4" transform="translate(256.500000, 241.536938) rotate(45.000000) translate(-256.500000, -241.536938) "></path>
        <g id="Group" transform="translate(136.000000, 120.000000)" fill="#FFFFFF" fill-rule="nonzero">
            <path d="M241.364325,67.8769567 L241.364325,67.8769567 L241.364325,67.8769567 C241.364325,68.9293068 241.417235,70.1729704 241.523056,71.6079475 L241.523056,71.6079475 L241.523056,71.6079475 C241.629127,73.0429246 241.682162,74.6692153 241.682162,76.4868194 L241.682162,76.4868194 L241.682162,76.4868194 C241.682162,78.7830845 241.311289,81.6292817 240.569543,85.0254109 L240.569543,85.0254109 L240.569543,85.0254109 C239.827546,88.4215402 238.63531,91.9852259 236.992836,95.7164681 L236.992836,95.7164681 L236.992836,95.7164681 C235.350111,99.4474589 233.151202,103.17845 230.396109,106.90944 L230.396109,106.90944 L230.396109,106.90944 C227.640764,110.640683 224.24962,113.989172 220.222674,116.954909 L220.222674,116.954909 L220.222674,116.954909 C216.195729,119.920394 211.453367,122.335947 205.995589,124.201568 L205.995589,124.201568 L205.995589,124.201568 C200.538061,126.067189 194.312207,127 187.318026,127 L187.318026,127 L187.318026,127 C181.065591,127 174.680629,125.923641 168.163142,123.770924 L168.163142,123.770924 L168.163142,123.770924 C161.645905,121.618459 155.711433,118.270095 150.359726,113.725833 L150.359726,113.725833 L150.359726,113.725833 C145.008269,109.181571 140.610451,103.393646 137.166271,96.362057 L137.166271,96.362057 L137.166271,96.362057 C133.72209,89.330468 132,80.9355502 132,71.1773036 L132,71.1773036 L132,71.1773036 C132,65.0545166 132.874273,59.0273865 134.622818,53.0959131 L134.622818,53.0959131 L134.622818,53.0959131 C136.371363,47.1644397 138.702799,41.5678278 141.617125,36.3060775 L141.617125,36.3060775 L141.617125,36.3060775 C144.53145,31.0443271 147.975505,26.1892123 151.94929,21.7407329 L151.94929,21.7407329 L151.94929,21.7407329 C155.923325,17.2920022 160.109251,13.4652289 164.50707,10.2604132 L164.50707,10.2604132 L164.50707,10.2604132 C168.905139,7.05559746 173.462064,4.5442618 178.177845,2.72640624 L178.177845,2.72640624 L178.177845,2.72640624 C182.893627,0.908802081 187.476882,0 191.92761,0 L191.92761,0 L191.92761,0 C199.663789,0 206.04875,1.1002413 211.082494,3.30072391 L211.082494,3.30072391 L211.082494,3.30072391 C216.116238,5.50095511 220.116729,8.22748705 223.083965,11.4803197 L223.083965,11.4803197 L223.083965,11.4803197 C226.051201,14.732901 228.144164,18.2008043 229.362855,21.8840295 L229.362855,21.8840295 L229.362855,21.8840295 C230.581545,25.5672548 231.190891,28.8917358 231.190891,31.8574724 L231.190891,31.8574724 L231.190891,31.8574724 C231.190891,34.7276781 230.422564,38.0043935 228.88591,41.6876188 L228.88591,41.6876188 L228.88591,41.6876188 C227.349257,45.370844 224.832384,48.8627558 221.335294,52.163354 L221.335294,52.163354 L221.335294,52.163354 C217.838203,55.4639522 213.281403,58.2382496 207.664894,60.4862464 L207.664894,60.4862464 L207.664894,60.4862464 C202.048134,62.7344945 195.159899,63.8586186 187.000188,63.8586186 L187.000188,63.8586186 L187.000188,63.8586186 C182.65528,63.8586186 178.760736,63.3085608 175.316555,62.2084452 L175.316555,62.2084452 L175.316555,62.2084452 C171.872375,61.1083296 168.825648,59.721118 166.176375,58.0468104 L166.176375,58.0468104 L166.176375,58.0468104 C162.149681,55.9245124 159.209025,53.8827874 157.354409,51.9216352 C158.790006,46.5947729 159.207521,42.8743408 158.606952,40.760339 C158.476055,40.2999044 158.491477,39.0947046 158.263913,38.7866169 L157.560157,40.7460093 L154.731214,47.068783 L154.731214,47.068783 C152.823688,53.0002563 151.869924,59.9363143 151.869924,67.8769567 L151.869924,67.8769567 L151.869924,67.8769567 C151.869924,73.3300206 152.744197,78.2330267 154.492742,82.585975 L154.492742,82.585975 L154.492742,82.585975 C156.241288,86.9389233 158.652214,90.6460313 161.725521,93.707299 L161.725521,93.707299 L161.725521,93.707299 C164.798578,96.7685668 168.45465,99.1124717 172.693737,100.739014 L172.693737,100.739014 L172.693737,100.739014 C176.932574,102.365304 181.59532,103.17845 186.681974,103.17845 L186.681974,103.17845 L186.681974,103.17845 C193.040481,103.17845 198.604079,102.197874 203.372771,100.236721 L203.372771,100.236721 L203.372771,100.236721 C208.141713,98.2755693 212.301185,95.8121249 215.851186,92.8463882 L215.851186,92.8463882 L215.851186,92.8463882 C219.401187,89.8806515 222.474368,86.6518273 225.070731,83.1599156 L225.070731,83.1599156 L225.070731,83.1599156 C227.667094,79.6680038 229.919039,76.4630624 231.826566,73.5450912 L231.826566,73.5450912 L231.826566,73.5450912 C233.734092,70.6273715 235.403147,68.2118183 236.833729,66.2984316 L236.833729,66.2984316 L236.833729,66.2984316 C238.264312,64.385045 239.668439,63.4761172 241.046111,63.5716483 L241.046111,63.5716483 L241.046111,63.5716483 C241.682037,63.5716483 242,64.0500578 242,65.0068768 L242,65.0068768 L242,65.0068768 C242,65.4850349 241.946964,65.9633187 241.840893,66.4417282 L241.840893,66.4417282 L241.840893,66.4417282 C241.735073,66.9201377 241.576217,67.3985472 241.364325,67.8769567 Z M193.517174,14.4936963 L193.517174,14.4936963 L193.517174,14.4936963 C191.609898,14.4936963 189.146062,14.8524405 186.125665,15.5699291 L186.125665,15.5699291 L186.125665,15.5699291 C183.105518,16.287669 179.926391,17.5553411 176.588282,19.3729453 L176.588282,19.3729453 L176.588282,19.3729453 C173.250172,21.1905494 169.938518,23.6539939 166.653319,26.7632785 L166.653319,26.7632785 L166.653319,26.7632785 L159.132794,37.1353122 L158.069449,38.6022169 C158.790131,38.8518546 159.258049,39.0141317 159.4732,39.0890482 C165.98492,41.3561511 170.948076,43.2269259 174.362666,44.7009953 L174.362666,44.7009953 L174.362666,44.7009953 C178.018739,46.2795204 182.125175,47.068783 186.681974,47.068783 L186.681974,47.068783 L186.681974,47.068783 C190.285136,47.068783 193.384899,46.5187252 195.981261,45.4186096 L195.981261,45.4186096 L195.981261,45.4186096 C198.577624,44.318494 200.723623,42.9073996 202.419258,41.1853265 L202.419258,41.1853265 L202.419258,41.1853265 C204.114643,39.4632534 205.333333,37.5737495 206.07533,35.5168149 L206.07533,35.5168149 L206.07533,35.5168149 C206.817077,33.4601317 207.18795,31.4272056 207.18795,29.4180365 L207.18795,29.4180365 L207.18795,29.4180365 C207.18795,25.1131051 205.969259,21.5494194 203.531878,18.7269793 L203.531878,18.7269793 L203.531878,18.7269793 C201.094496,15.9047906 197.756262,14.4936963 193.517174,14.4936963 Z" id="Shape"></path>
            <path d="M0,41.6381626 L0,41.6381626 L0,41.6381626 C0,41.0468116 5.07729529,35.9708805 15.2318859,26.4103691 L15.2318859,26.4103691 L15.2318859,26.4103691 C25.3864764,16.8498577 31.5556564,12.069602 33.7394257,12.069602 L33.7394257,12.069602 L33.7394257,12.069602 C35.9231951,12.069602 37.0150798,16.0121526 37.0150798,23.8972539 L37.0150798,23.8972539 L37.0150798,23.8972539 C37.0150798,39.8642361 39.3626003,56.66905 44.0576413,74.3116953 L44.0576413,74.3116953 L44.0576413,74.3116953 C48.7526824,91.9540877 54.3758569,107.674589 60.927165,121.473201 L60.927165,121.473201 L60.927165,121.473201 C67.478473,135.272065 74.248158,148.085133 81.2362199,159.912405 L81.2362199,159.912405 L81.2362199,159.912405 C88.2245342,171.739931 94.0662118,180.856929 98.7612529,187.2634 L98.7612529,187.2634 L98.7612529,187.2634 C103.456294,193.669871 106.240568,197.168782 107.114076,197.760133 L107.114076,197.760133 L107.114076,197.760133 C115.194149,104.520675 129.934655,45.6793561 151.335595,21.2361745 L151.335595,21.2361745 L151.335595,21.2361745 C157.886903,13.9424242 164.765839,10.1970327 171.972404,10 L171.972404,10 L171.972404,10 C179.140365,11.7328253 183.816231,13.6834236 186,15.8517948 L180.816481,13.2525568 L180.816481,13.2525568 C178.681408,14.4957091 173.718284,19.1159864 165.92711,27.1133888 C154.240349,39.1094922 150.680464,49.6217802 140.853502,77.711837 L140.853502,77.711837 L140.853502,77.711837 C134.302194,96.4385415 129.170273,116.791588 125.457739,138.770975 L125.457739,138.770975 L125.457739,138.770975 C121.745457,160.75011 119.889316,178.63911 119.889316,192.437974 L119.889316,192.437974 L121.526954,217.866951 L121.526954,217.866951 C111.918369,228.90584 105.421686,235.85434 102.036907,238.712452 L102.036907,238.712452 L102.036907,238.712452 C98.6521275,241.570817 95.9769785,243 94.0114599,243 L94.0114599,243 L94.0114599,243 C90.5174289,243 83.7477439,235.60786 73.7024049,220.82358 L73.7024049,220.82358 L73.7024049,220.82358 C63.6570659,206.039299 53.174973,188.495297 42.2561262,168.191572 L42.2561262,168.191572 L42.2561262,168.191572 C31.3372795,147.887847 21.6194428,125.711427 13.1026161,101.66231 L13.1026161,101.66231 L13.1026161,101.66231 C4.5860418,77.6131942 0.218503092,57.6051449 0,41.6381626 Z" id="Path"></path>
        </g>
    </g>
</svg>